<svg width="25" height="24" viewBox="0 0 25 24" fill="none" xmlns="http://www.w3.org/2000/svg">
<path d="M11.5 16.5L10.4425 17.5575L12.3775 19.5H3.25V6H1.75V19.5C1.75 20.3273 2.42275 21 3.25 21H12.3775L10.4425 22.9425L11.5 24L15.25 20.25L11.5 16.5Z" fill="#6801CB"/>
<path d="M8.5 12.75C8.91421 12.75 9.25 12.4142 9.25 12C9.25 11.5858 8.91421 11.25 8.5 11.25C8.08579 11.25 7.75 11.5858 7.75 12C7.75 12.4142 8.08579 12.75 8.5 12.75Z" fill="#6801CB"/>
<path d="M18.25 15H6.25C5.42275 15 4.75 14.3273 4.75 13.5V10.5C4.75 9.67275 5.42275 9 6.25 9H18.25C19.0773 9 19.75 9.67275 19.75 10.5V13.5C19.75 14.3273 19.0773 15 18.25 15ZM6.25 10.5V13.5H18.25V10.5H6.25Z" fill="#6801CB"/>
<path d="M21.25 3H12.1225L14.0575 1.0575L13 0L9.25 3.75L13 7.5L14.0575 6.4425L12.1225 4.5H21.25V18H22.75V4.5C22.75 3.6735 22.0773 3 21.25 3Z" fill="#6801CB"/>
</svg>
